<svg width="81" height="80" viewBox="0 0 81 80" fill="none" xmlns="http://www.w3.org/2000/svg">
<path d="M40.5 0C62.592 0 80.5 17.908 80.5 40C80.5 62.092 62.592 80 40.5 80C18.408 80 0.5 62.092 0.5 40C0.5 17.908 18.408 0 40.5 0ZM40.5 8C32.0131 8 23.8737 11.3714 17.8726 17.3726C11.8714 23.3737 8.5 31.5131 8.5 40C8.5 48.4869 11.8714 56.6263 17.8726 62.6274C23.8737 68.6286 32.0131 72 40.5 72C48.9869 72 57.1263 68.6286 63.1274 62.6274C69.1286 56.6263 72.5 48.4869 72.5 40C72.5 31.5131 69.1286 23.3737 63.1274 17.3726C57.1263 11.3714 48.9869 8 40.5 8ZM40.5 16C41.4797 16.0001 42.4254 16.3598 43.1575 17.0109C43.8896 17.6619 44.3574 18.559 44.472 19.532L44.5 20V38.344L55.328 49.172C56.0454 49.8918 56.4619 50.8577 56.4929 51.8735C56.5239 52.8893 56.1671 53.8789 55.495 54.6411C54.8229 55.4034 53.8858 55.8812 52.8741 55.9776C51.8624 56.074 50.852 55.7816 50.048 55.16L49.672 54.828L37.672 42.828C37.0503 42.2058 36.6511 41.396 36.536 40.524L36.5 40V20C36.5 18.9391 36.9214 17.9217 37.6716 17.1716C38.4217 16.4214 39.4391 16 40.5 16Z" fill="#FFB627"/>
</svg>
