<svg width="32" height="26" viewBox="0 0 32 26" fill="none" xmlns="http://www.w3.org/2000/svg">
<path d="M3.2 25.8002C2.32 25.8002 1.56693 25.4871 0.9408 24.861C0.314667 24.2349 0.00106667 23.4813 0 22.6002V3.40019C0 2.5202 0.3136 1.76713 0.9408 1.14099C1.568 0.514862 2.32107 0.201262 3.2 0.200195H28.8C29.68 0.200195 30.4336 0.513795 31.0608 1.14099C31.688 1.76819 32.0011 2.52126 32 3.40019V22.6002C32 23.4802 31.6869 24.2338 31.0608 24.861C30.4347 25.4882 29.6811 25.8013 28.8 25.8002H3.2ZM16 14.6002L3.2 6.60019V22.6002H28.8V6.60019L16 14.6002ZM16 11.4002L28.8 3.40019H3.2L16 11.4002ZM3.2 6.60019V3.40019V22.6002V6.60019Z" fill="#FFB627"/>
</svg>
