<svg width="16" height="20" viewBox="0 0 16 20" fill="none" xmlns="http://www.w3.org/2000/svg">
<path d="M14.5455 18.5714H10.0491C10.8044 17.909 11.5167 17.2008 12.1818 16.4509C14.6773 13.6321 16 10.6607 16 7.85714C16 5.7733 15.1571 3.7748 13.6569 2.3013C12.1566 0.827804 10.1217 0 8 0C5.87827 0 3.84344 0.827804 2.34315 2.3013C0.842855 3.7748 0 5.7733 0 7.85714C0 10.6607 1.31909 13.6321 3.81818 16.4509C4.48328 17.2008 5.19559 17.909 5.95091 18.5714H1.45455C1.26166 18.5714 1.07668 18.6467 0.940286 18.7806C0.803896 18.9146 0.727273 19.0963 0.727273 19.2857C0.727273 19.4752 0.803896 19.6568 0.940286 19.7908C1.07668 19.9247 1.26166 20 1.45455 20H14.5455C14.7383 20 14.9233 19.9247 15.0597 19.7908C15.1961 19.6568 15.2727 19.4752 15.2727 19.2857C15.2727 19.0963 15.1961 18.9146 15.0597 18.7806C14.9233 18.6467 14.7383 18.5714 14.5455 18.5714ZM1.45455 7.85714C1.45455 6.15218 2.14415 4.51705 3.37166 3.31146C4.59918 2.10587 6.26404 1.42857 8 1.42857C9.73596 1.42857 11.4008 2.10587 12.6283 3.31146C13.8558 4.51705 14.5455 6.15218 14.5455 7.85714C14.5455 12.967 9.50273 17.2321 8 18.3929C6.49727 17.2321 1.45455 12.967 1.45455 7.85714ZM11.6364 7.85714C11.6364 7.15078 11.4231 6.46028 11.0235 5.87296C10.624 5.28565 10.056 4.82789 9.39158 4.55757C8.72712 4.28726 7.99597 4.21653 7.29058 4.35434C6.5852 4.49214 5.93726 4.83229 5.4287 5.33176C4.92015 5.83123 4.57382 6.4676 4.43351 7.16039C4.2932 7.85318 4.36521 8.57128 4.64044 9.22387C4.91567 9.87646 5.38175 10.4342 5.97974 10.8267C6.57774 11.2191 7.2808 11.4286 8 11.4286C8.96442 11.4286 9.88935 11.0523 10.5713 10.3825C11.2532 9.71275 11.6364 8.80435 11.6364 7.85714ZM5.81818 7.85714C5.81818 7.43333 5.94614 7.01903 6.18588 6.66664C6.42563 6.31424 6.76638 6.03959 7.16505 5.8774C7.56373 5.71521 8.00242 5.67278 8.42565 5.75546C8.84888 5.83814 9.23765 6.04223 9.54278 6.34191C9.84791 6.6416 10.0557 7.02342 10.1399 7.43909C10.2241 7.85477 10.1809 8.28562 10.0157 8.67718C9.8506 9.06874 9.57095 9.4034 9.21215 9.63886C8.85335 9.87432 8.43152 10 8 10C7.42135 10 6.86639 9.77424 6.45722 9.37237C6.04805 8.97051 5.81818 8.42546 5.81818 7.85714Z" fill="#2B303A"/>
</svg>
