<svg width="40" height="36" viewBox="0 0 40 36" fill="none" xmlns="http://www.w3.org/2000/svg">
<path d="M2.68253e-06 11.988C-0.00105166 10.4124 0.308705 8.8521 0.911536 7.39639C1.51437 5.94068 2.39843 4.61818 3.5131 3.50462C4.62777 2.39107 5.95115 1.50833 7.40746 0.906956C8.86378 0.305582 10.4244 -0.00261403 12 1.67005e-05H28C34.626 1.67005e-05 40 5.39002 40 11.988V36H12C5.374 36 2.68253e-06 30.61 2.68253e-06 24.012V11.988ZM36 32V11.988C35.9947 9.86902 35.1498 7.83849 33.6503 6.34125C32.1508 4.84401 30.119 4.00213 28 4.00002H12C10.9497 3.99738 9.90921 4.20211 8.9382 4.60247C7.96719 5.00282 7.08476 5.59092 6.34152 6.33304C5.59829 7.07517 5.00886 7.95671 4.60705 8.92712C4.20524 9.89753 3.99895 10.9377 4 11.988V24.012C4.00529 26.131 4.85023 28.1615 6.34972 29.6588C7.84921 31.156 9.88099 31.9979 12 32H36ZM24 16H28V20H24V16ZM12 16H16V20H12V16Z" fill="#2B303A"/>
</svg>
