<svg width="21" height="24" viewBox="0 0 21 24" fill="none" xmlns="http://www.w3.org/2000/svg">
<path fill-rule="evenodd" clip-rule="evenodd" d="M10.4545 5.84999e-06C8.86501 -0.00211093 7.32825 0.570293 6.12742 1.61175C4.92659 2.65322 4.14259 4.09357 3.91988 5.66742C3.69716 7.24128 4.05073 8.84261 4.91544 10.1764C5.78015 11.5101 7.09774 12.4865 8.62545 12.9255C6.45454 13.1891 4.59273 13.9564 3.18909 15.34C1.40364 17.0982 0.5 19.7182 0.5 23.1364C0.5 23.3654 0.59099 23.5851 0.752953 23.747C0.914916 23.909 1.13459 24 1.36364 24C1.59269 24 1.81236 23.909 1.97432 23.747C2.13628 23.5851 2.22727 23.3654 2.22727 23.1364C2.22727 20.0091 3.05091 17.9 4.40182 16.5691C5.75454 15.2364 7.77636 14.5455 10.4545 14.5455C13.1327 14.5455 15.1545 15.2364 16.5091 16.5691C17.8582 17.9018 18.6818 20.0091 18.6818 23.1364C18.6818 23.3654 18.7728 23.5851 18.9348 23.747C19.0967 23.909 19.3164 24 19.5455 24C19.7745 24 19.9942 23.909 20.1561 23.747C20.3181 23.5851 20.4091 23.3654 20.4091 23.1364C20.4091 19.7182 19.5054 17.1 17.7182 15.34C16.3182 13.9582 14.4545 13.1891 12.2836 12.9255C13.8062 12.4815 15.1179 11.5037 15.9781 10.1712C16.8383 8.83875 17.1894 7.2409 16.9672 5.67054C16.745 4.10017 15.9643 2.66249 14.7681 1.62102C13.572 0.579548 12.0405 0.00404861 10.4545 5.84999e-06ZM5.59091 6.59091C5.59091 5.301 6.10332 4.06391 7.01543 3.1518C7.92754 2.2397 9.16463 1.72728 10.4545 1.72728C11.7445 1.72728 12.9815 2.2397 13.8937 3.1518C14.8058 4.06391 15.3182 5.301 15.3182 6.59091C15.3182 7.88083 14.8058 9.11792 13.8937 10.03C12.9815 10.9421 11.7445 11.4545 10.4545 11.4545C9.16463 11.4545 7.92754 10.9421 7.01543 10.03C6.10332 9.11792 5.59091 7.88083 5.59091 6.59091Z" fill="#FFB627"/>
</svg>
