<svg width="85" height="82" viewBox="0 0 85 82" fill="none" xmlns="http://www.w3.org/2000/svg">
<path d="M84.1364 31.1103C83.7737 30.0042 83.0902 29.0281 82.1709 28.3035C81.2517 27.579 80.1374 27.1381 78.9667 27.0357L56.7346 25.1392L48.0199 4.63303C47.5662 3.55703 46.8008 2.63793 45.8203 1.99144C44.8398 1.34496 43.6878 1 42.5096 1C41.3313 1 40.1794 1.34496 39.1988 1.99144C38.2183 2.63793 37.453 3.55703 36.9992 4.63303L28.3108 25.1392L6.05239 27.0468C4.87709 27.1445 3.75711 27.5835 2.83289 28.3085C1.90868 29.0336 1.22137 30.0125 0.857167 31.1225C0.492961 32.2326 0.468067 33.4243 0.785608 34.5483C1.10315 35.6722 1.74899 36.6784 2.64213 37.4407L19.5287 52.0424L14.4676 73.7265C14.2 74.8612 14.2763 76.0488 14.6871 77.1409C15.0979 78.2329 15.8249 79.1809 16.7773 79.8663C17.7296 80.5517 18.865 80.9441 20.0415 80.9945C21.2179 81.0448 22.3833 80.7509 23.3919 80.1495L42.4834 68.6666L61.616 80.1495C62.6246 80.7509 63.79 81.0448 64.9664 80.9945C66.1429 80.9441 67.2783 80.5517 68.2306 79.8663C69.1829 79.1809 69.91 78.2329 70.3207 77.1409C70.7316 76.0488 70.8079 74.8612 70.5403 73.7265L65.4829 52.0202L82.3658 37.4407C83.2588 36.6758 83.9034 35.6667 84.2184 34.5404C84.5335 33.414 84.5049 32.2206 84.1364 31.1103ZM78.4389 32.9623L61.5561 47.5419C60.7344 48.2491 60.1231 49.1646 59.7881 50.19C59.453 51.2153 59.4068 52.3117 59.6544 53.3611L64.7268 75.0822L45.6091 63.5993C44.6764 63.0373 43.6054 62.74 42.5133 62.74C41.4212 62.74 40.3502 63.0373 39.4175 63.5993L20.3261 75.0822L25.3647 53.3759C25.6123 52.3265 25.5661 51.2302 25.231 50.2048C24.896 49.1795 24.2847 48.2639 23.463 47.5567L6.57273 32.9846C6.57136 32.9735 6.57136 32.9623 6.57273 32.9512L28.8236 31.0473C29.91 30.9525 30.9496 30.5661 31.8302 29.9296C32.7109 29.2932 33.3993 28.4309 33.8211 27.4358L42.5096 6.95553L51.1943 27.4358C51.6161 28.4309 52.3045 29.2932 53.1851 29.9296C54.0658 30.5661 55.1054 30.9525 56.1918 31.0473L78.4464 32.9512V32.9772L78.4389 32.9623Z" fill="#FFB627" stroke="#FFB627"/>
</svg>
