<svg width="44" height="44" viewBox="0 0 44 44" fill="none" xmlns="http://www.w3.org/2000/svg">
<path d="M2 22C2 27.3043 4.10714 32.3914 7.85786 36.1421C11.6086 39.8929 16.6957 42 22 42C27.3043 42 32.3914 39.8929 36.1421 36.1421C39.8929 32.3914 42 27.3043 42 22C42 16.6957 39.8929 11.6086 36.1421 7.85786C32.3914 4.10714 27.3043 2 22 2C16.6957 2 11.6086 4.10714 7.85786 7.85786C4.10714 11.6086 2 16.6957 2 22Z" stroke="#FFB627" stroke-width="3" stroke-linecap="round" stroke-linejoin="round"/>
<path d="M30.7738 11.7947L29.0938 33.6251L19.8714 24.1595L8.94336 21.8715L30.7738 11.7915V11.7947Z" stroke="#FFB627" stroke-width="3" stroke-linecap="round" stroke-linejoin="round"/>
<path d="M15.8018 23.2997L17.4434 32.7781L23.4498 27.7989M19.8626 24.1125L23.3634 21.3125" stroke="#FFB627" stroke-width="3" stroke-linecap="round" stroke-linejoin="round"/>
</svg>
