<svg width="71" height="80" viewBox="0 0 71 80" fill="none" xmlns="http://www.w3.org/2000/svg">
<path d="M0.833374 5.71429C0.833374 2.55357 3.41532 0 6.61115 0H64.3889C67.5848 0 70.1667 2.55357 70.1667 5.71429C70.1667 8.875 67.5848 11.4286 64.3889 11.4286H6.61115C3.41532 11.4286 0.833374 8.875 0.833374 5.71429ZM0.833374 28.5714C0.833374 25.4107 3.41532 22.8571 6.61115 22.8571H64.3889C67.5848 22.8571 70.1667 25.4107 70.1667 28.5714C70.1667 31.7321 67.5848 34.2857 64.3889 34.2857H41.2778V74.2857C41.2778 77.4464 38.6959 80 35.5 80C32.3042 80 29.7223 77.4464 29.7223 74.2857V34.2857H6.61115C3.41532 34.2857 0.833374 31.7321 0.833374 28.5714Z" fill="#FFB627"/>
</svg>
