<svg width="77" height="80" viewBox="0 0 77 80" fill="none" xmlns="http://www.w3.org/2000/svg">
<path fill-rule="evenodd" clip-rule="evenodd" d="M28.627 10.9251C29.3164 16.7631 28.3741 22.8512 26.2773 28.3159C23.9561 34.363 20.8721 40.9107 20.4887 47.4215C20.1664 52.9066 21.4024 59.3968 24.6986 63.8399C28.3088 68.7055 34.2361 71.7948 40.7591 71.7948H46.9271C52.0438 71.795 56.9737 69.8613 60.739 66.377C64.5043 62.8928 66.8299 58.1126 67.2546 52.9845L68.7272 35.2123C68.7741 34.6466 68.7037 34.0773 68.5205 33.5404C68.3374 33.0035 68.0454 32.5107 67.6632 32.0931C67.2809 31.6755 66.8167 31.3422 66.2997 31.1143C65.7828 30.8865 65.2245 30.7689 64.6601 30.7692H42.9334C41.3164 30.7671 39.7657 30.1227 38.6189 28.9763C37.4721 27.8299 36.8221 26.2743 36.8102 24.6482C36.7776 20.6687 37.0264 15.7579 35.207 12.0943C33.5753 8.81229 32.0496 8.20512 30.6953 8.20512C29.4714 8.20512 28.4924 9.81742 28.627 10.9251ZM30.6953 0C36.2269 0 40.0533 3.49538 42.505 8.42255C44.6345 12.7097 44.8344 17.8584 44.9404 22.5641H64.6601C66.3533 22.5638 68.0282 22.9169 69.5788 23.6011C71.1293 24.2853 72.5219 25.2856 73.6683 26.5388C74.8147 27.7919 75.69 29.2707 76.239 30.8816C76.7879 32.4925 76.9985 34.2004 76.8574 35.8974L75.3848 53.6656C74.7902 60.8447 71.5344 67.5368 66.2632 72.4147C60.992 77.2927 54.0903 80 46.9271 79.9999H40.7591C36.8893 80.011 33.0583 79.2238 29.503 77.6869C25.9478 76.15 22.7437 73.8961 20.0889 71.0645C18.2239 71.5518 16.3046 71.7972 14.3778 71.7948C9.85783 71.7948 6.10481 69.2512 3.6735 65.1979C1.30747 61.2594 0.0999756 55.8235 0.0999756 49.2307C0.0999756 42.642 1.31155 37.2061 3.6735 33.2676C6.10481 29.2102 9.85783 26.6666 14.3778 26.6666C15.5241 26.6666 16.7397 26.8718 17.9554 27.2164C19.8237 22.2933 21.1536 17.2184 20.5254 11.8933C19.8237 5.96512 24.6415 0 30.6953 0ZM15.1773 34.9702C13.1988 34.56 11.6487 35.8564 10.6615 37.5056C9.33159 39.721 8.25872 43.5117 8.25872 49.2307C8.25872 54.9497 9.33159 58.7445 10.6574 60.9599C11.922 63.0604 13.2682 63.5897 14.3778 63.5897C14.6389 63.5897 14.8959 63.5814 15.1529 63.5691C12.9663 58.6133 12.0281 52.3281 12.3462 46.9374C12.538 43.6348 13.8189 39.0687 15.1773 34.9702Z" fill="#FFB627"/>
</svg>
