<svg width="18" height="16" viewBox="0 0 18 16" fill="none" xmlns="http://www.w3.org/2000/svg">
<path d="M13.6316 14.2508C13.7439 14.2508 13.8365 14.2143 13.9095 14.1413C13.9836 14.0678 14.0206 13.9749 14.0206 13.8626C14.0206 13.7503 13.9839 13.6574 13.9103 13.5838C13.8368 13.5103 13.7439 13.4735 13.6316 13.4735C13.5193 13.4735 13.4267 13.51 13.3537 13.583C13.2796 13.6571 13.2425 13.7503 13.2425 13.8626C13.2425 13.9749 13.2793 14.0675 13.3528 14.1405C13.4264 14.214 13.5193 14.2508 13.6316 14.2508ZM13.3074 12.6963H13.9558V10.17H13.3074V12.6963ZM1.84211 12.5346V13.0525V3.78932V12.5346ZM2.36 13.8946C1.97263 13.8946 1.64926 13.7649 1.38989 13.5055C1.12996 13.2456 1 12.922 1 12.5346V4.30721C1 3.91985 1.12996 3.59648 1.38989 3.33711C1.64926 3.07718 1.97263 2.94721 2.36 2.94721H6.05263V1.7809C6.05263 1.39353 6.1826 1.07016 6.44253 0.810793C6.7019 0.550863 7.02526 0.420898 7.41263 0.420898H9.74526C10.1326 0.420898 10.4563 0.550863 10.7162 0.810793C10.9756 1.07016 11.1053 1.39353 11.1053 1.7809V2.94721H14.7979C15.1853 2.94721 15.5086 3.07718 15.768 3.33711C16.0279 3.59648 16.1579 3.91985 16.1579 4.30721V7.84237C16.0243 7.7576 15.8898 7.68349 15.7545 7.62006C15.6198 7.55718 15.4735 7.49823 15.3158 7.44321V4.30637C15.3158 4.15535 15.2672 4.03128 15.1701 3.93416C15.073 3.83704 14.9489 3.78876 14.7979 3.78932H2.36C2.20898 3.78932 2.08491 3.83788 1.98779 3.935C1.89067 4.03213 1.84211 4.1562 1.84211 4.30721V12.5346C1.84211 12.6856 1.89067 12.8097 1.98779 12.9068C2.08491 13.0039 2.20898 13.0525 2.36 13.0525H8.64211C8.67354 13.2069 8.70723 13.3514 8.74316 13.4862C8.77853 13.6209 8.82147 13.757 8.872 13.8946H2.36ZM6.89474 2.94721H10.2632V1.7809C10.2632 1.62988 10.2146 1.50581 10.1175 1.40869C10.0204 1.31156 9.89628 1.263 9.74526 1.263H7.41263C7.26161 1.263 7.13754 1.31156 7.04042 1.40869C6.9433 1.50581 6.89474 1.62988 6.89474 1.7809V2.94721ZM13.6316 15.5788C12.6935 15.5788 11.8974 15.2521 11.2434 14.5986C10.5893 13.9451 10.2626 13.149 10.2632 12.2104C10.2632 11.2723 10.5899 10.4762 11.2434 9.82216C11.8968 9.16813 12.6929 8.84139 13.6316 8.84195C14.5697 8.84195 15.3658 9.16869 16.0198 9.82216C16.6738 10.4756 17.0006 11.2717 17 12.2104C17 13.1485 16.6733 13.9445 16.0198 14.5986C15.3663 15.2526 14.5702 15.5794 13.6316 15.5788Z" fill="#2B303A"/>
<path d="M1.84211 12.5346V13.0525V3.78932V12.5346ZM1.84211 12.5346V4.30721C1.84211 4.1562 1.89067 4.03213 1.98779 3.935C2.08491 3.83788 2.20898 3.78932 2.36 3.78932H14.7979C14.9489 3.78876 15.073 3.83704 15.1701 3.93416C15.2672 4.03128 15.3158 4.15535 15.3158 4.30637V7.44321C15.4735 7.49823 15.6198 7.55718 15.7545 7.62006C15.8898 7.68349 16.0243 7.7576 16.1579 7.84237V4.30721C16.1579 3.91985 16.0279 3.59648 15.768 3.33711C15.5086 3.07718 15.1853 2.94721 14.7979 2.94721H11.1053V1.7809C11.1053 1.39353 10.9756 1.07016 10.7162 0.810793C10.4563 0.550863 10.1326 0.420898 9.74526 0.420898H7.41263C7.02526 0.420898 6.7019 0.550863 6.44253 0.810793C6.1826 1.07016 6.05263 1.39353 6.05263 1.7809V2.94721H2.36C1.97263 2.94721 1.64926 3.07718 1.38989 3.33711C1.12996 3.59648 1 3.91985 1 4.30721V12.5346C1 12.922 1.12996 13.2456 1.38989 13.5055C1.64926 13.7649 1.97263 13.8946 2.36 13.8946H8.872C8.82147 13.757 8.77853 13.6209 8.74316 13.4862C8.70723 13.3514 8.67354 13.2069 8.64211 13.0525H2.36C2.20898 13.0525 2.08491 13.0039 1.98779 12.9068C1.89067 12.8097 1.84211 12.6856 1.84211 12.5346ZM13.6316 14.2508C13.7439 14.2508 13.8365 14.2143 13.9095 14.1413C13.9836 14.0678 14.0206 13.9749 14.0206 13.8626C14.0206 13.7503 13.9839 13.6574 13.9103 13.5838C13.8368 13.5103 13.7439 13.4735 13.6316 13.4735C13.5193 13.4735 13.4267 13.51 13.3537 13.583C13.2796 13.6571 13.2425 13.7503 13.2425 13.8626C13.2425 13.9749 13.2793 14.0675 13.3528 14.1405C13.4264 14.214 13.5193 14.2508 13.6316 14.2508ZM13.3074 12.6963H13.9558V10.17H13.3074V12.6963ZM6.89474 2.94721H10.2632V1.7809C10.2632 1.62988 10.2146 1.50581 10.1175 1.40869C10.0204 1.31156 9.89628 1.263 9.74526 1.263H7.41263C7.26161 1.263 7.13754 1.31156 7.04042 1.40869C6.9433 1.50581 6.89474 1.62988 6.89474 1.7809V2.94721ZM13.6316 15.5788C12.6935 15.5788 11.8974 15.2521 11.2434 14.5986C10.5893 13.9451 10.2626 13.149 10.2632 12.2104C10.2632 11.2723 10.5899 10.4762 11.2434 9.82216C11.8968 9.16813 12.6929 8.84139 13.6316 8.84195C14.5697 8.84195 15.3658 9.16869 16.0198 9.82216C16.6738 10.4756 17.0006 11.2717 17 12.2104C17 13.1485 16.6733 13.9445 16.0198 14.5986C15.3663 15.2526 14.5702 15.5794 13.6316 15.5788Z" stroke="#2B303A" stroke-width="0.3"/>
</svg>
